# xmcd CD database file generated by OrangeCD 6.0
#
# Track frame offsets:
#	150
#	8809
#	17436
#	27582
#	34742
#	46734
#	57280
#	66583
#	76699
#	85094
#	93086
#	106437
#	118649
#	131886
#	139953
#	149046
#	156902
#	162344
#	174085
#	185333
#
# Disc length: 2574 seconds
#
# Revision: 0
# Processed by: cddbd v1.5.2PL0 Copyright (c) Steve Scherf et al.
# Submitted via: OrangeCD 6.0
#
DISCID=090a0c14
DTITLE=Andy Parker and the Plainsmen - Call of the Rollin' Plains Disc 2
DYEAR=1900
DGENRE=Country
TTITLE0=Texas Plains/The Eyes of Texas
TTITLE1=Chant of the Wanderer
TTITLE2=Still Waters Run Deep
TTITLE3=You Can't Take Texas Out of Me
TTITLE4=The Wheel of the Wagon Is Broken
TTITLE5=Fast Freight
TTITLE6=Blue Juniata
TTITLE7=Twilight Time In Texas
TTITLE8=Blue Bonnet Girl
TTITLE9=When Payday Rolls Around
TTITLE10=New San Antonio Rose
TTITLE11=Along the Rio Grande
TTITLE12=South
TTITLE13=Way Out There
TTITLE14=Tom-Big-Bee River
TTITLE15=Timber Trail
TTITLE16=Ridin' Down To Santa Fe
TTITLE17=All Day on the Prairie
TTITLE18=The Last Round-up
TTITLE19=A Cowboy Has To Sing
EXTD=
EXTT0=
EXTT1=
EXTT2=
EXTT3=
EXTT4=
EXTT5=
EXTT6=
EXTT7=
EXTT8=
EXTT9=
EXTT10=
EXTT11=
EXTT12=
EXTT13=
EXTT14=
EXTT15=
EXTT16=
EXTT17=
EXTT18=
EXTT19=
PLAYORDER=
